# xmcd CD database file generated by SCRIPT
#
# Track frame offsets:
#	150
#	20275
#	36165
#	60280
#	76700
#	104980
#	124932
#	139962
#	156615
#	230190
#	248497
#	260870
#
# Disc length: 3664 seconds
#
# Revision: 0
# Submitted via: SCRIPT 0.1.2
#
DISCID=aa0e4e0c
DTITLE=Artist / Title
DYEAR=2020
DGENRE=misc
TTITLE0=T01
TTITLE1=T02
TTITLE2=T03
TTITLE3=T04
TTITLE4=T05
TTITLE5=T06
TTITLE6=T07
TTITLE7=T08
TTITLE8=T09
TTITLE9=T10
TTITLE10=T11
TTITLE11=T12
